<?xml version="1.0" encoding="iso-8859-1"?>
<!-- Uploaded to: SVG Repo, www.svgrepo.com, Generator: SVG Repo Mixer Tools -->
<!DOCTYPE svg PUBLIC "-//W3C//DTD SVG 1.1//EN" "http://www.w3.org/Graphics/SVG/1.1/DTD/svg11.dtd">
<svg fill="#00214e" height="800px" width="800px" version="1.1" id="Capa_1" xmlns="http://www.w3.org/2000/svg" xmlns:xlink="http://www.w3.org/1999/xlink" 
	 viewBox="0 0 492.137 492.137" xml:space="preserve">
<path d="M373.158,284.303h-40.042l-58.518-70.211c1.496-1.977,2.345-4.361,2.4-6.89c0.07-3.179-1.102-6.193-3.299-8.489
	c-2.267-2.369-5.32-3.674-8.6-3.674c-3.078,0-5.999,1.173-8.226,3.301c-2.92,2.795-6.755,4.333-10.8,4.333
	c-8.617,0-15.628-7.011-15.628-15.629c0-8.617,7.011-15.628,15.628-15.628c6.562,0,11.9-5.338,11.9-11.9V130.38h11.772
	c6.486,0,12.035-4.661,13.152-11.05l9.984-57.055c0.68-3.885-0.392-7.871-2.93-10.891c-2.536-3.02-6.278-4.764-10.222-4.764h-2.302
	V0h-23v46.621h-16.723V0h-23v46.621h-2.302c-3.943,0-7.686,1.744-10.222,4.764c-2.537,3.02-3.609,7.006-2.93,10.891l9.984,57.055
	c1.117,6.389,6.666,11.05,13.152,11.05h11.784v19.071c-16.266,5.159-27.528,20.455-27.528,37.593
	c0,10.495,4.13,20.039,10.841,27.112l-58.467,70.146h-40.042c-21.598,0-39.104,17.508-39.104,39.105v129.623
	c0,21.596,17.506,39.105,39.104,39.105h254.18c21.596,0,39.103-17.51,39.103-39.105V323.408
	C412.262,301.811,394.754,284.303,373.158,284.303z M231.531,88.5c0-8.029,6.508-14.537,14.537-14.537s14.537,6.508,14.537,14.537
	s-6.508,14.539-14.537,14.539S231.531,96.529,231.531,88.5z M149.591,441.023c0,7.498-6.079,13.578-13.578,13.578
	c-7.499,0-13.577-6.08-13.577-13.578V335.416c0-7.498,6.078-13.578,13.577-13.578c7.499,0,13.578,6.08,13.578,13.578V441.023z
	 M222.961,441.023c0,7.498-6.078,13.578-13.578,13.578s-13.578-6.08-13.578-13.578V335.416c0-7.498,6.078-13.578,13.578-13.578
	s13.578,6.08,13.578,13.578V441.023z M296.332,441.023c0,7.498-6.08,13.578-13.578,13.578c-7.5,0-13.578-6.08-13.578-13.578V335.416
	c0-7.498,6.078-13.578,13.578-13.578c7.498,0,13.578,6.08,13.578,13.578V441.023z M188.962,284.303l48.919-58.691
	c2.645,0.561,5.384,0.861,8.193,0.861c2.779,0,5.518-0.299,8.184-0.859l48.917,58.689H188.962z M369.701,441.023
	c0,7.498-6.078,13.578-13.578,13.578c-7.498,0-13.578-6.08-13.578-13.578V335.416c0-7.498,6.08-13.578,13.578-13.578
	c7.5,0,13.578,6.08,13.578,13.578V441.023z"/>
</svg>